# xmcd
#
# Track frame offsets:
#	150
#	16053
#	28702
#	45709
#	65827
#	73385
#	90454
#	117020
#	132158
#	152807
#
# Disc length: 2378 seconds
# Revision: 0
# Processed by: cddbd v1.5.2PL0 Copyright (c) Steve Scherf et al.
# Submitted via: dBpowerAMP V12.0
#
DISCID=8409480a
DTITLE=Xerath - I
DYEAR=2009
DGENRE=Metal
TTITLE0=Intrenity
TTITLE1=Alterra
TTITLE2=Nocturnum
TTITLE3=Consequences
TTITLE4=Interlude
TTITLE5=False History
TTITLE6=Abiogenesis
TTITLE7=Reform Part I
TTITLE8=Reform Part II
TTITLE9=Right to Exist
EXTD=
EXTT0=
EXTT1=
EXTT2=
EXTT3=
EXTT4=
EXTT5=
EXTT6=
EXTT7=
EXTT8=
EXTT9=
PLAYORDER=
